#!OML:ASF F:\VICON\USERDATA\INSTALL\rory3\rory3.ASF
:FULLY-SPECIFIED
:DEGREES
913
root -1.09646 21.9584 3.37736 -1.59368 3.14801 -0.00481356
lowerback 1.61018 -0.349852 -2.41251
upperback 1.95891 -0.509276 3.18227
thorax 1.16093 -0.31047 4.63971
lowerneck -11.8931 1.99881 -9.43194
upperneck 43.3049 5.98926 0.845794
head 17.8597 1.04083 3.162
rclavicle -1.33186e-014 3.97569e-015
rhumerus -32.2527 -7.3762 -77.3967
rradius 38.2768
rwrist 19.779
rhand -20.293 1.73954
rfingers 7.12502
rthumb 6.05697 -28.1539
lclavicle -1.33186e-014 3.97569e-015
lhumerus -35.4147 12.3225 79.8478
lradius 30.1678
lwrist -5.36085
lhand -12.9957 26.6852
lfingers 7.12502
lthumb 13.0974 56.2539
rfemur -22.3392 -11.0553 26.9352
rtibia 81.924
rfoot -35.4253 11.101
rtoes 1.99877
lfemur -3.54517 -3.94405 -21.8384
ltibia -7.15625e-015
lfoot 15.1355 -2.52102
ltoes -23.7603
914
root -1.08357 21.9205 3.42341 -1.496 3.32001 0.0387929
lowerback 1.65766 -0.349644 -2.49486
upperback 1.87464 -0.508894 3.17373
thorax 1.04832 -0.307624 4.67814
lowerneck -11.8904 1.96707 -9.38223
upperneck 43.2786 5.97272 0.737165
head 17.8547 1.02957 3.09953
rclavicle 3.47873e-015 -1.27222e-014
rhumerus -32.4131 -7.354 -77.3768
rradius 38.203
rwrist 19.5846
rhand -21.2401 3.2279
rfingers 7.12502
rthumb 5.1425 -26.6897
lclavicle 3.47873e-015 -1.27222e-014
lhumerus -35.4387 12.2999 79.9091
lradius 30.0063
lwrist -5.28111
lhand -13.1875 26.4487
lfingers 7.12502
lthumb 12.9125 56.0292
rfemur -22.5328 -11.2492 26.8259
rtibia 82.6465
rfoot -35.5733 10.7324
rtoes -0.430782
lfemur -3.40756 -4.08069 -21.9886
ltibia -1.11319e-014
lfoot 14.3123 -2.86862
ltoes -21.7372
915
root -1.06918 21.8881 3.46963 -1.40035 3.50887 0.0999474
lowerback 1.73359 -0.323098 -2.53977
upperback 1.81586 -0.473574 3.133
thorax 0.941702 -0.286998 4.66161
lowerneck -12.0057 1.90797 -9.36514
upperneck 43.2871 5.88511 0.766405
head 17.8954 0.999185 3.10047
rclavicle 7.45443e-015 -2.8625e-014
rhumerus -32.5142 -7.51947 -77.2955
rradius 38.2496
rwrist 20.0827
rhand -19.2485 0.630808
rfingers 7.12502
rthumb 7.0653 -29.2313
lclavicle 7.45443e-015 -2.8625e-014
lhumerus -35.4196 12.1985 80.005
lradius 29.9071
lwrist -5.2308
lhand -13.325 26.2167
lfingers 7.12502
lthumb 12.7799 55.8055
rfemur -22.7495 -11.4643 26.6758
rtibia 83.3599
rfoot -35.5568 10.3291
rtoes -3.3606
lfemur -3.35828 -4.23442 -22.1503
ltibia -1.27222e-014
lfoot 13.6737 -3.14229
ltoes -20.5854
916
root -1.05455 21.8619 3.51986 -1.33833 3.649 0.146126
lowerback 1.71098 -0.303482 -2.51116
upperback 1.84765 -0.446637 3.04875
thorax 0.98322 -0.273868 4.55708
lowerneck -12.1431 1.86925 -9.36888
upperneck 43.1788 5.80537 0.845912
head 17.8658 0.981854 3.12547
rclavicle 1.59028e-015 3.10104e-014
rhumerus -32.4895 -7.67619 -77.3443
rradius 38.2181
rwrist 20.2567
rhand -18.8422 -0.00770707
rfingers 7.12502
rthumb 7.45743 -29.8563
lclavicle 1.59028e-015 3.10104e-014
lhumerus -35.3308 12.0437 80.055
lradius 29.8613
lwrist -5.14322
lhand -13.2506 26.2315
lfingers 7.12502
lthumb 12.8516 55.8159
rfemur -22.9532 -11.6216 26.4981
rtibia 84.0425
rfoot -35.2636 10.3589
rtoes -4.64859
lfemur -3.34721 -4.33837 -22.2869
ltibia -7.15625e-015
lfoot 13.3883 -3.19657
ltoes -19.6603
917
root -1.04109 21.8341 3.5724 -1.24456 3.77435 0.190753
lowerback 1.60944 -0.326633 -2.52439
upperback 1.86635 -0.476257 2.98618
thorax 1.06176 -0.290251 4.4989
lowerneck -12.1927 1.87999 -9.43342
upperneck 43.0134 5.81897 0.888761
head 17.7733 0.992315 3.15393
rclavicle 1.76421e-014 0
rhumerus -32.5188 -7.61778 -77.464
rradius 38.199
rwrist 20.011
rhand -19.1913 0.544931
rfingers 7.12502
rthumb 7.12051 -29.3153
lclavicle 1.76421e-014 0
lhumerus -35.2542 11.9309 80.1019
lradius 29.7227
lwrist -4.99171
lhand -13.2854 26.032
lfingers 7.12502
lthumb 12.8181 55.6184
rfemur -23.1513 -11.735 26.3099
rtibia 84.681
rfoot -34.8448 10.7102
rtoes -4.46848
lfemur -3.36094 -4.43075 -22.43
ltibia -2.54444e-014
lfoot 13.2393 -2.95812
ltoes -19.2955
